<?xml version="1.0" encoding="utf-8"?>
<svg xmlns="http://www.w3.org/2000/svg" viewBox="0 0 500 500" width="456" height="456">
  <g id="Layer_1" transform="matrix(0.982138, 0, 0, 0.983512, -136.412735, 48.744366)" style="">
    <path fill="#07ADCB" opacity="1.000000" stroke="none" d="M 524.794 -13.254 C 524.943 -13.175 525.093 -13.096 525.415 -12.442 C 526.469 -9.971 527.278 -7.887 529.794 -10.254 C 529.944 -10.174 530.094 -10.094 530.373 -9.474 C 531.267 -8.707 532.031 -8.48 532.795 -8.253 C 532.945 -8.174 533.095 -8.094 533.373 -7.474 C 534.267 -6.707 535.031 -6.48 535.795 -6.253 C 535.945 -6.174 536.095 -6.094 536.373 -5.474 C 537.267 -4.707 538.031 -4.48 538.795 -4.253 C 538.945 -4.174 539.095 -4.094 539.366 -3.423 C 539.936 -0.933 540.396 0.94 542.797 -1.253 C 542.946 -1.173 543.096 -1.093 543.367 -0.423 C 543.936 2.067 544.396 3.94 546.797 1.747 C 546.946 1.827 547.096 1.907 547.367 2.592 C 548.177 5.309 548.402 8.207 551.797 5.747 C 551.946 5.827 552.096 5.907 552.366 6.594 C 557.224 12.046 561.943 16.908 566.761 21.668 C 566.951 21.856 568.097 21.076 568.797 20.747 C 568.946 20.827 569.096 20.907 569.367 21.596 C 572.068 25.779 574.496 29.473 577.252 32.904 C 586.467 44.369 595.764 55.769 605.13 67.111 C 606.308 68.538 608.088 69.468 609.589 70.628 C 609.837 70.824 610.085 71.02 610.164 71.859 C 610.86 73.545 611.724 74.587 612.589 75.628 C 612.837 75.824 613.085 76.02 613.164 76.856 C 613.842 78.526 614.69 79.556 615.537 80.586 C 625.412 98.034 633.527 116.259 638.323 135.751 C 641.233 147.574 643.129 159.647 645.534 171.596 C 645.648 172.163 646.283 172.624 647.049 172.882 C 647.423 193.316 647.423 214.004 647.423 235.16 C 646.757 236.477 645.6 237.271 645.498 238.183 C 643.132 259.348 637.25 279.554 629.538 299.345 C 621.432 320.144 610.463 339.346 597.127 357.096 C 581.719 377.604 563.497 395.44 542.711 410.576 C 522.036 425.631 499.51 437.27 475.355 445.434 C 458.88 451.002 441.974 455.355 424.477 456.683 C 423.607 456.749 422.785 457.456 422.182 458.247 C 403.402 458.629 384.381 458.629 364.891 458.629 C 363.875 457.97 363.373 456.779 362.774 456.729 C 338.58 454.701 315.723 447.47 293.414 438.461 C 284.224 434.75 275.562 429.731 266.566 424.725 C 265.505 423.784 264.537 423.425 263.57 423.066 C 262.89 422.778 262.211 422.49 261.519 421.704 C 260.7 420.95 259.893 420.695 259.086 420.439 C 259.086 420.439 258.753 420.433 258.661 419.924 C 257.568 418.96 256.566 418.506 255.565 418.051 C 254.887 417.767 254.208 417.484 253.518 416.703 C 252.7 415.95 251.893 415.695 251.086 415.439 C 251.086 415.439 250.744 415.425 250.728 414.915 C 249.495 413.739 248.278 413.072 247.061 412.405 C 247.061 412.405 246.74 412.419 246.683 411.95 C 245.769 411.122 244.911 410.763 244.054 410.404 C 244.054 410.404 243.73 410.411 243.721 409.908 C 242.495 408.739 241.278 408.072 240.061 407.405 C 240.061 407.405 239.734 407.413 239.723 406.909 C 238.495 405.739 237.278 405.072 236.061 404.405 C 236.061 404.405 235.731 404.411 235.735 403.904 C 235.363 399.914 233.487 398.564 230.067 399.409 C 230.067 399.409 229.734 399.413 229.738 398.909 C 229.07 394.665 227.147 392.596 223.068 393.41 C 223.068 393.41 222.734 393.413 222.739 392.914 C 221.755 390.772 221.061 388.831 219.736 387.533 C 204.437 372.545 191.124 355.989 179.851 337.776 C 169.199 320.568 160.18 302.512 153.977 283.284 C 143.311 250.228 140.459 216.254 143.287 181.653 C 145.744 151.588 153.651 122.997 166.043 95.699 C 175.669 74.493 188.938 55.399 204.552 38.185 C 229.768 10.384 258.831 -12.341 293.744 -27.09 C 319.322 -37.895 345.956 -44.46 373.541 -46.111 C 389.936 -47.093 406.528 -46.394 422.934 -45.159 C 443.409 -43.617 463.258 -38.464 482.698 -31.809 C 487.293 -30.235 492.091 -29.254 496.795 -28.001 C 502.876 -25.057 508.958 -22.114 515.313 -18.519 C 516.469 -15.971 517.278 -13.887 519.794 -16.254 C 519.943 -16.175 520.093 -16.096 520.415 -15.442 C 521.469 -12.971 522.278 -10.887 524.794 -13.254 M 446.643 -33.354 C 445.903 -33.415 445.163 -33.477 444.238 -33.961 C 443.619 -34.059 443 -34.157 441.643 -34.354 C 440.903 -34.415 440.163 -34.477 439.238 -34.961 C 438.619 -35.059 438 -35.157 436.592 -35.353 C 435.536 -35.415 434.479 -35.476 433.238 -35.961 C 432.619 -36.059 432 -36.157 430.558 -36.353 C 429.179 -36.415 427.801 -36.476 426.238 -36.961 C 425.619 -37.059 425 -37.157 423.515 -37.353 C 421.484 -37.415 419.454 -37.476 417.238 -37.961 C 416.619 -38.059 416 -38.157 414.457 -38.353 C 409.446 -38.415 404.434 -38.476 399.238 -38.961 C 398.619 -39.059 398 -39.157 396.491 -39.353 C 393.229 -39.027 389.97 -38.675 386.705 -38.379 C 375.589 -37.368 364.424 -36.742 353.365 -35.302 C 332.07 -32.53 311.888 -25.673 292.461 -16.796 C 271.876 -7.39 252.969 4.741 235.797 19.625 C 221.627 31.907 208.69 45.336 197.601 60.372 C 187.064 74.66 178.238 90.023 170.974 106.342 C 160.75 129.312 154.334 153.257 151.59 178.117 C 150.304 189.77 150.123 201.641 150.604 213.365 C 151.071 224.772 152.77 236.155 154.411 247.478 C 155.588 255.607 157.559 263.62 159.004 272.551 C 159.091 273.537 159.022 274.568 159.29 275.502 C 164.605 293.982 172.22 311.561 182.002 328.021 C 189.349 340.383 197.768 352.17 206.443 363.658 C 211.808 370.763 218.463 376.913 224.756 383.276 C 225.761 384.292 227.912 384.175 230.227 384.636 C 230.896 385.071 231.65 385.416 232.221 385.954 C 246.552 399.473 262.662 410.61 280.174 419.388 C 293.861 426.249 308.339 431.531 322.624 438.151 C 323.858 441.044 325.516 440.799 327.999 438.663 C 328.473 438.928 328.946 439.193 329.628 440.163 C 331.079 441.11 332.409 442.518 333.999 442.938 C 367.34 451.746 400.996 452.964 434.954 447.015 C 465.379 441.686 493.534 430.34 520.018 414.744 C 544.333 400.426 565.584 382.445 583.336 360.402 C 601.129 338.308 614.661 313.86 624.912 287.434 C 633.129 266.253 637.766 244.272 639.205 221.796 C 640.881 195.595 638.239 169.682 631.661 144.066 C 618.985 94.703 593.158 53.562 555.148 20.114 C 529.203 -2.716 499.456 -19.249 466.232 -29.218 C 464.737 -29.666 463.04 -29.447 460.93 -29.424 C 460.761 -29.462 460.592 -29.5 460.121 -30.1 C 458.227 -30.579 456.332 -31.059 453.93 -31.424 C 453.761 -31.462 453.592 -31.5 453.191 -32.03 C 452.273 -32.199 451.355 -32.369 449.93 -32.424 C 449.761 -32.462 449.592 -32.5 449.238 -32.961 C 448.619 -33.059 448 -33.157 446.643 -33.354 Z" style="stroke-width: 1;"/>
    <path fill="#07ADCB" opacity="1.000000" stroke="none" d="M 496.503 -28.181 C 492.091 -29.254 487.293 -30.235 482.698 -31.809 C 463.258 -38.464 443.409 -43.617 422.934 -45.159 C 406.528 -46.394 389.936 -47.093 373.541 -46.111 C 345.956 -44.46 319.322 -37.895 293.744 -27.09 C 258.831 -12.341 229.768 10.384 204.552 38.185 C 188.938 55.399 175.669 74.493 166.043 95.699 C 153.651 122.997 145.744 151.588 143.287 181.653 C 140.459 216.254 143.311 250.228 153.977 283.284 C 160.18 302.512 169.199 320.568 179.851 337.776 C 191.124 355.989 204.437 372.545 219.736 387.533 C 221.061 388.831 221.755 390.772 222.664 392.765 C 200.855 372.791 182.623 349.813 168.69 323.41 C 156.457 300.228 147.825 275.896 143.372 250.065 C 142.484 244.909 141.307 239.803 139.843 234.651 C 139.423 214.941 139.423 195.253 139.423 175.097 C 140.088 173.779 141.245 172.985 141.347 172.073 C 144.025 148.112 150.733 125.307 160.143 103.146 C 168.552 83.343 179.309 64.873 192.8 48.327 C 203.398 35.33 215.602 23.554 227.772 11.948 C 245.07 -4.548 265.484 -16.57 287.072 -26.586 C 306.162 -35.443 325.947 -42.177 346.833 -45.433 C 351.907 -46.224 356.899 -47.546 361.676 -48.998 C 382.444 -49.371 403.464 -49.371 424.954 -49.371 C 426.136 -48.708 426.796 -47.535 427.57 -47.454 C 451.531 -44.949 474.214 -37.899 496.503 -28.181 Z" style="stroke-width: 1;"/>
    <path fill="#07ADCB" opacity="1.000000" stroke="none" d="M 223.365 393.524 C 227.147 392.596 229.07 394.665 229.663 398.76 C 227.61 397.29 225.636 395.464 223.365 393.524 Z" style="stroke-width: 1;"/>
    <path fill="#07ADCB" opacity="1.000000" stroke="none" d="M 230.359 399.523 C 233.487 398.564 235.363 399.914 235.662 403.756 C 233.94 402.622 232.296 401.129 230.359 399.523 Z" style="stroke-width: 1;"/>
    <path fill="#07ADCB" opacity="1.000000" stroke="none" d="M 236.33 404.514 C 237.278 405.072 238.495 405.739 239.65 406.763 C 238.591 406.288 237.594 405.456 236.33 404.514 Z" style="stroke-width: 1;"/>
    <path fill="#07ADCB" opacity="1.000000" stroke="none" d="M 240.33 407.514 C 241.278 408.072 242.495 408.739 243.65 409.763 C 242.591 409.288 241.594 408.456 240.33 407.514 Z" style="stroke-width: 1;"/>
    <path fill="#07ADCB" opacity="1.000000" stroke="none" d="M 247.33 412.514 C 248.278 413.072 249.495 413.739 250.65 414.763 C 249.591 414.288 248.594 413.456 247.33 412.514 Z" style="stroke-width: 1;"/>
    <path fill="#07ADCB" opacity="1.000000" stroke="none" d="M 255.774 418.291 C 256.566 418.506 257.568 418.96 258.583 419.777 C 257.725 419.603 256.854 419.067 255.774 418.291 Z" style="stroke-width: 1;"/>
    <path fill="#07ADCB" opacity="1.000000" stroke="none" d="M 259.332 420.531 C 259.893 420.695 260.7 420.95 261.411 421.442 C 260.737 421.326 260.158 420.974 259.332 420.531 Z" style="stroke-width: 1;"/>
    <path fill="#07ADCB" opacity="1.000000" stroke="none" d="M 251.332 415.531 C 251.893 415.695 252.7 415.95 253.411 416.442 C 252.737 416.326 252.158 415.974 251.332 415.531 Z" style="stroke-width: 1;"/>
    <path fill="#07ADCB" opacity="1.000000" stroke="none" d="M 263.798 423.302 C 264.537 423.425 265.505 423.784 266.394 424.41 C 265.552 424.297 264.789 423.918 263.798 423.302 Z" style="stroke-width: 1;"/>
    <path fill="#07ADCB" opacity="1.000000" stroke="none" d="M 244.299 410.508 C 244.911 410.763 245.769 411.122 246.609 411.807 C 245.91 411.626 245.227 411.119 244.299 410.508 Z" style="stroke-width: 1;"/>
    <path fill="#07ADCB" opacity="1.000000" stroke="none" d="M 609.512 70.273 C 608.088 69.468 606.308 68.538 605.13 67.111 C 595.764 55.769 586.467 44.369 577.252 32.904 C 574.496 29.473 572.068 25.779 569.456 21.834 C 570.757 22.354 572.34 23.019 573.386 24.171 C 586.46 38.583 599.504 53.027 609.512 70.273 Z" style="stroke-width: 1;"/>
    <path fill="#07ADCB" opacity="1.000000" stroke="none" d="M 568.629 20.488 C 568.097 21.076 566.951 21.856 566.761 21.668 C 561.943 16.908 557.224 12.046 552.456 6.832 C 557.769 11.051 563.116 15.64 568.629 20.488 Z" style="stroke-width: 1;"/>
    <path fill="#07ADCB" opacity="1.000000" stroke="none" d="M 551.629 5.488 C 548.402 8.207 548.177 5.309 547.456 2.83 C 548.769 3.385 550.115 4.306 551.629 5.488 Z" style="stroke-width: 1;"/>
    <path fill="#07ADCB" opacity="1.000000" stroke="none" d="M 529.617 -10.519 C 527.278 -7.887 526.469 -9.971 525.503 -12.205 C 526.76 -11.957 528.1 -11.371 529.617 -10.519 Z" style="stroke-width: 1;"/>
    <path fill="#07ADCB" opacity="1.000000" stroke="none" d="M 524.617 -13.519 C 522.278 -10.887 521.469 -12.971 520.503 -15.205 C 521.76 -14.957 523.1 -14.371 524.617 -13.519 Z" style="stroke-width: 1;"/>
    <path fill="#07ADCB" opacity="1.000000" stroke="none" d="M 519.618 -16.519 C 517.278 -13.887 516.469 -15.971 515.503 -18.205 C 516.76 -17.957 518.1 -17.371 519.618 -16.519 Z" style="stroke-width: 1;"/>
    <path fill="#07ADCB" opacity="1.000000" stroke="none" d="M 546.632 1.491 C 544.396 3.94 543.936 2.067 543.456 -0.185 C 544.438 0.054 545.452 0.645 546.632 1.491 Z" style="stroke-width: 1;"/>
    <path fill="#07ADCB" opacity="1.000000" stroke="none" d="M 542.632 -1.509 C 540.396 0.94 539.936 -0.933 539.456 -3.185 C 540.438 -2.946 541.452 -2.356 542.632 -1.509 Z" style="stroke-width: 1;"/>
    <path fill="#07ADCB" opacity="1.000000" stroke="none" d="M 612.514 75.298 C 611.724 74.587 610.86 73.545 610.106 72.103 C 610.958 72.792 611.698 73.88 612.514 75.298 Z" style="stroke-width: 1;"/>
    <path fill="#07ADCB" opacity="1.000000" stroke="none" d="M 615.484 80.256 C 614.69 79.556 613.842 78.526 613.107 77.1 C 613.955 77.778 614.693 78.852 615.484 80.256 Z" style="stroke-width: 1;"/>
    <path fill="#07ADCB" opacity="1.000000" stroke="none" d="M 538.638 -4.495 C 538.031 -4.48 537.267 -4.707 536.463 -5.235 C 537.109 -5.27 537.795 -5.003 538.638 -4.495 Z" style="stroke-width: 1;"/>
    <path fill="#07ADCB" opacity="1.000000" stroke="none" d="M 535.638 -6.495 C 535.031 -6.48 534.267 -6.707 533.463 -7.235 C 534.109 -7.27 534.795 -7.003 535.638 -6.495 Z" style="stroke-width: 1;"/>
    <path fill="#07ADCB" opacity="1.000000" stroke="none" d="M 532.638 -8.495 C 532.031 -8.48 531.267 -8.707 530.463 -9.235 C 531.109 -9.27 531.795 -9.003 532.638 -8.495 Z" style="stroke-width: 1;"/>
    <path fill="#07ADCB" opacity="1.000000" stroke="none" d="M 329.524 439.811 C 336.742 441.014 344.028 442.774 351.397 444.065 C 357.837 445.193 364.349 446.127 370.868 446.55 C 380.613 447.184 390.403 447.759 400.155 447.542 C 430.516 446.867 459.704 440.493 487.677 428.595 C 505.919 420.835 523.183 411.267 538.952 399.317 C 564.489 379.963 585.737 356.591 602.318 329.074 C 611.855 313.247 619.545 296.514 625.132 278.971 C 630.423 262.355 634.65 245.359 635.382 227.79 C 635.956 214.037 637.203 200.182 636.178 186.521 C 634.332 161.915 628.865 137.981 619.582 114.928 C 611.05 93.74 600.134 73.936 586.045 56.078 C 571.91 38.163 555.784 22.151 537.292 8.511 C 514.35 -8.411 489.11 -20.488 461.775 -29.364 C 463.04 -29.447 464.737 -29.666 466.232 -29.218 C 499.456 -19.249 529.203 -2.716 555.148 20.114 C 593.158 53.562 618.985 94.703 631.661 144.066 C 638.239 169.682 640.881 195.595 639.205 221.796 C 637.766 244.272 633.129 266.253 624.912 287.434 C 614.661 313.86 601.129 338.308 583.336 360.402 C 565.584 382.445 544.333 400.426 520.018 414.744 C 493.534 430.34 465.379 441.686 434.954 447.015 C 400.996 452.964 367.34 451.746 333.999 442.938 C 332.409 442.518 331.079 441.11 329.524 439.811 Z" style="stroke-width: 1;"/>
    <path fill="#07ADCB" opacity="1.000000" stroke="none" d="M 159.09 272.118 C 161.905 278.96 164.552 286.267 167.378 293.504 C 175.668 314.733 186.403 334.662 200.82 352.333 C 209.772 363.307 219.741 373.451 229.393 384.275 C 227.912 384.175 225.761 384.292 224.756 383.276 C 218.463 376.913 211.808 370.763 206.443 363.658 C 197.768 352.17 189.349 340.383 182.002 328.021 C 172.22 311.561 164.605 293.982 159.29 275.502 C 159.022 274.568 159.091 273.537 159.09 272.118 Z" style="stroke-width: 1;"/>
    <path fill="#07ADCB" opacity="1.000000" stroke="none" d="M 322.544 437.832 C 323.889 437.826 325.314 438.139 327.074 438.624 C 325.516 440.799 323.858 441.044 322.544 437.832 Z" style="stroke-width: 1;"/>
    <path fill="#07ADCB" opacity="1.000000" stroke="none" d="M 460.272 -29.819 C 458.645 -30.095 456.867 -30.652 454.763 -31.374 C 456.332 -31.059 458.227 -30.579 460.272 -29.819 Z" style="stroke-width: 1;"/>
    <path fill="#07ADCB" opacity="1.000000" stroke="none" d="M 453.307 -31.784 C 452.629 -31.775 451.835 -32.011 450.739 -32.393 C 451.355 -32.369 452.273 -32.199 453.307 -31.784 Z" style="stroke-width: 1;"/>
    <path fill="#07ADCB" opacity="1.000000" stroke="none" d="M 444.33 -33.75 C 443.83 -33.591 443.237 -33.643 442.513 -33.976 C 443 -34.157 443.619 -34.059 444.33 -33.75 Z" style="stroke-width: 1;"/>
    <path fill="#07ADCB" opacity="1.000000" stroke="none" d="M 399.33 -38.75 C 398.83 -38.591 398.237 -38.643 397.513 -38.976 C 398 -39.157 398.619 -39.059 399.33 -38.75 Z" style="stroke-width: 1;"/>
    <path fill="#07ADCB" opacity="1.000000" stroke="none" d="M 417.33 -37.75 C 416.83 -37.591 416.237 -37.643 415.513 -37.976 C 416 -38.157 416.619 -38.059 417.33 -37.75 Z" style="stroke-width: 1;"/>
    <path fill="#07ADCB" opacity="1.000000" stroke="none" d="M 426.33 -36.75 C 425.83 -36.591 425.237 -36.643 424.513 -36.976 C 425 -37.157 425.619 -37.059 426.33 -36.75 Z" style="stroke-width: 1;"/>
    <path fill="#07ADCB" opacity="1.000000" stroke="none" d="M 433.33 -35.75 C 432.83 -35.591 432.237 -35.643 431.513 -35.976 C 432 -36.157 432.619 -36.059 433.33 -35.75 Z" style="stroke-width: 1;"/>
    <path fill="#07ADCB" opacity="1.000000" stroke="none" d="M 439.33 -34.75 C 438.83 -34.591 438.237 -34.643 437.513 -34.976 C 438 -35.157 438.619 -35.059 439.33 -34.75 Z" style="stroke-width: 1;"/>
    <path fill="#07ADCB" opacity="1.000000" stroke="none" d="M 449.33 -32.75 C 448.83 -32.591 448.237 -32.643 447.513 -32.976 C 448 -33.157 448.619 -33.059 449.33 -32.75 Z" style="stroke-width: 1;"/>
    <path fill="#07ADCB" opacity="1.000000" stroke="none" d="M 542.666 357.628 C 534.791 356.861 532.892 350.644 530.507 345.227 C 527.171 337.65 524.378 329.836 521.219 322.178 C 520.612 320.706 519.525 319.361 518.423 318.177 C 513.526 312.913 509.71 313.681 507.521 320.699 C 504.282 331.082 501.475 341.599 498.4 352.035 C 494.595 364.948 490.99 377.932 486.722 390.692 C 484.78 396.497 480.305 400.169 473.56 399.614 C 469.241 399.258 465.101 397.774 463.909 393.36 C 462.725 388.979 462.509 384.256 462.447 379.674 C 462.386 375.248 463.162 370.817 463.393 366.379 C 463.807 358.451 464.037 350.514 464.432 342.585 C 465.402 323.12 466.651 303.666 467.34 284.192 C 467.78 271.748 462.482 267.168 449.681 266.537 C 438.199 265.971 426.664 265.202 415.328 263.412 C 408.395 262.317 400.992 260.261 397.443 252.95 C 396.354 250.706 395.589 247.389 396.495 245.387 C 397.208 243.811 400.735 242.701 402.983 242.749 C 436.13 243.451 468.147 237.666 499.353 226.713 C 520.873 219.16 540.501 208.58 557.056 192.594 C 564.557 185.35 570.061 177.15 572.492 166.939 C 572.942 165.048 574.019 163.306 575.51 161.674 C 576.413 172.333 577.262 182.773 573.617 193.11 C 569.257 205.475 560.992 215.071 552.815 224.91 C 546.628 232.355 538.51 238.998 537.319 249.353 C 536.666 255.024 537.498 261.032 538.596 266.707 C 541.964 284.115 545.861 301.42 549.395 318.797 C 551.242 327.881 553.328 336.975 554.249 346.171 C 555.043 354.091 550.989 357.592 542.666 357.628 Z" style="stroke-width: 1;"/>
    <path fill="#DE6126" opacity="1.000000" stroke="none" d="M 274.533 314.685 C 266.86 318.82 264.511 326.349 261.438 333.321 C 258.626 339.701 256.469 346.398 253.296 352.583 C 250.708 357.625 244.634 359.446 239.005 357.364 C 234.318 355.631 232.866 351.385 233.511 346.907 C 235 336.569 236.683 326.242 238.778 316.012 C 242.799 296.373 247.355 276.844 251.288 257.189 C 252.924 249.016 249.063 242.056 244.122 235.919 C 237.218 227.341 229.575 219.335 222.987 210.532 C 212.719 196.814 209.339 180.948 210.517 164.032 C 210.62 162.549 211.508 161.12 212.415 158.596 C 214.34 164.393 215.863 169.099 217.464 173.778 C 221.184 184.652 229.3 192.246 237.743 199.167 C 255.524 213.742 275.823 223.902 298.026 229.737 C 312.977 233.666 328.132 237.147 343.405 239.426 C 358.83 241.728 374.514 242.295 390.082 243.652 C 391 243.732 391.894 244.077 392.759 244.289 C 392.128 256.448 382.252 262.599 370.448 264.461 C 361.209 265.919 351.736 265.854 342.386 266.675 C 338.009 267.058 333.562 267.52 329.348 268.677 C 321.528 270.824 319.248 273.396 319.549 281.578 C 320.093 296.401 321.417 311.196 322.36 326.005 C 322.78 332.603 323.078 339.208 323.409 345.81 C 324.088 359.347 324.876 372.88 325.37 386.423 C 325.614 393.121 321.685 397.677 314.92 399.399 C 310.261 400.585 303.617 397.551 301.766 392.138 C 297.295 379.069 293.462 365.781 289.43 352.564 C 286.058 341.509 282.899 330.386 279.314 319.402 C 278.706 317.54 276.419 316.226 274.533 314.685 Z" style="stroke-width: 1;"/>
    <path fill="#694559" opacity="1.000000" stroke="none" d="M 475.454 81.473 C 473.531 83.157 471.679 84.931 469.671 86.507 C 465.077 90.111 459.686 91.22 453.976 91.702 C 449.242 92.101 444.397 92.621 439.894 94.026 C 428.331 97.632 428.903 99.926 429.632 111.511 C 430.191 120.388 431.346 129.234 432.447 138.067 C 433.791 148.857 435.346 159.62 436.83 170.392 C 437.998 178.875 439.556 187.326 440.2 195.848 C 440.443 199.067 439.347 202.922 437.578 205.656 C 432.994 212.74 424.292 212.484 419.223 204.791 C 416.117 200.078 414.606 194.311 412.403 189.007 C 408.112 178.678 404.394 168.062 399.375 158.101 C 395.655 150.719 392.655 150.696 388.187 157.618 C 384.566 163.227 381.93 169.587 379.615 175.893 C 376.781 183.614 374.919 191.688 372.291 199.493 C 370.228 205.619 365.31 211.54 357.292 210.75 C 352.977 210.325 350.73 208.302 349.322 204.597 C 346.752 197.833 347.854 190.962 348.744 184.125 C 350.233 172.692 351.999 161.293 353.395 149.849 C 355.131 135.619 356.722 121.369 358.129 107.103 C 358.549 102.843 357.482 98.349 353.108 96.705 C 347.949 94.766 342.429 93.585 336.964 92.71 C 328.842 91.41 320.442 91.405 314.451 84.259 C 311.269 80.465 311.709 77.938 316.639 76.759 C 321.758 75.536 326.933 74.453 332.141 73.72 C 356.753 70.255 381.45 68.075 406.354 68.585 C 426.246 68.992 445.836 71.49 465.179 76.043 C 468.597 76.847 471.954 77.91 475.4 79.545 C 475.459 80.649 475.457 81.061 475.454 81.473 Z" style="stroke-width: 1;"/>
    <path fill="#E84260" opacity="1.000000" stroke="none" d="M 475.785 81.688 C 475.457 81.061 475.459 80.649 475.493 79.93 C 478.028 79.628 480.797 78.927 482.991 79.754 C 498.968 85.777 515.302 91.141 530.601 98.602 C 547.275 106.734 561.808 118.365 570.375 135.429 C 573.338 141.333 573.973 148.456 575.231 155.106 C 575.407 156.034 572.704 158.644 571.927 158.42 C 568.298 157.375 564.395 156.225 561.494 153.957 C 556.918 150.379 553.065 145.877 548.907 141.766 C 548.212 142.096 547.517 142.426 546.822 142.757 C 546.701 145.245 546.091 147.825 546.542 150.205 C 548.758 161.881 551.309 173.493 553.593 185.158 C 553.901 186.731 554.007 189.02 553.124 190.045 C 544.77 199.737 534.754 207.311 523.043 212.558 C 522.698 212.713 522.129 212.365 521.106 212.115 C 523.612 207.52 525.928 203.087 528.416 198.753 C 533.274 190.29 534.43 180.824 535.291 171.453 C 536.25 161.013 529.509 151.366 520.772 148.287 C 516.05 146.623 512.519 149.027 508.827 150.809 C 500.402 154.875 494.992 162.236 491.761 170.411 C 488.275 179.232 486.124 188.742 484.709 198.149 C 484.03 202.666 485.942 207.789 487.481 212.369 C 489.467 218.283 488.957 222.254 483.291 223.922 C 478.749 225.259 472.839 225.708 468.769 223.85 C 464.567 221.933 463.599 216.309 465.388 211.3 C 469.369 200.157 473.166 188.942 477.418 177.902 C 484.842 158.625 492.641 139.494 500.096 120.229 C 502.777 113.301 501.683 110.203 495.771 105.374 C 492.601 102.785 489.522 100.011 486.062 97.869 C 480.016 94.126 476.869 88.821 475.785 81.688 Z" style="stroke-width: 1;"/>
    <path fill="#76BE43" opacity="1.000000" stroke="none" d="M 258.127 153.451 C 250.821 164.522 251.152 176.082 255.07 187.653 C 257.084 193.6 260.35 199.123 263.043 204.842 C 263.861 206.579 264.655 208.328 265.879 210.979 C 263.325 210.452 261.451 210.46 259.975 209.697 C 250.79 204.946 241.622 200.039 235.653 191.163 C 234.506 189.458 234.102 186.7 234.467 184.622 C 236.577 172.578 239.11 160.609 241.235 148.567 C 241.492 147.108 240.504 145.009 239.392 143.926 C 238.915 143.461 236.364 144.497 235.242 145.434 C 231.442 148.607 228.192 152.554 224.09 155.215 C 220.726 157.397 216.446 158.168 211.382 159.993 C 212.169 149.555 213.726 141.091 218.232 133.332 C 226.963 118.298 240.081 107.686 255.095 100.038 C 270.448 92.217 286.763 86.259 302.791 79.82 C 304.73 79.041 309.365 79.921 309.558 80.763 C 310.239 83.737 310.765 88.129 309.11 89.987 C 304.847 94.772 299.566 98.733 294.36 102.576 C 286.769 108.179 284.829 113.519 288.375 122.495 C 297.669 146.017 307.256 169.424 316.414 192.998 C 319.232 200.251 321.312 207.828 323.212 215.386 C 324.375 220.01 320.598 224.044 315.607 225.775 C 309.932 227.742 305.701 225.166 301.605 222.183 C 298.923 220.23 298.389 217.452 299.511 214.004 C 301.163 208.924 303.296 203.591 303.133 198.432 C 302.92 191.695 301.491 184.71 299.104 178.391 C 294.966 167.442 288.336 157.902 278.456 151.165 C 270.532 145.762 265.088 146.456 258.127 153.451 Z" style="stroke-width: 1;"/>
    <path fill="#694559" opacity="1.000000" stroke="none" d="M 389.345 9.598 C 403.677 6.974 419.121 16.416 421.293 32.364 C 422.858 43.848 418.727 53.699 409.169 59.981 C 400.122 65.928 390.042 66.62 380.071 60.941 C 370.57 55.53 364.515 42.775 366.534 31.758 C 368.645 20.239 378.143 10.845 389.345 9.598 Z" style="stroke-width: 1;"/>
    <path fill="#07ADCB" opacity="1.000000" stroke="none" d="M 488.424 200.509 C 489.519 185.907 492.5 172.432 501.341 160.763 C 506.57 153.862 513.157 150.439 521.734 151.714 C 526.982 152.494 529.252 156.716 530.357 161.321 C 533.218 173.245 530.879 184.692 526.354 195.765 C 522.802 204.454 518.631 213.007 509.432 217.003 C 499.251 221.426 490.319 218.589 489.393 206.233 C 489.26 204.461 488.757 202.717 488.424 200.509 Z" style="stroke-width: 1;"/>
    <path fill="#DE6126" opacity="1.000000" stroke="none" d="M 260.093 192.871 C 258.385 186.05 255.808 179.553 255.78 173.045 C 255.756 167.476 257.654 161.308 260.498 156.458 C 264.567 149.521 273.479 150.023 280.56 156.205 C 291.118 165.422 295.803 177.524 298.491 190.814 C 300.144 198.984 300.002 206.73 295.604 214.109 C 292.91 218.63 288.717 220.382 283.637 218.706 C 271.096 214.566 264.982 204.544 260.093 192.871 Z" style="stroke-width: 1;"/>
    <path fill="#E84260" opacity="1.000000" stroke="none" d="M 540.932 91.421 C 532.305 94.919 523.766 92.234 518.352 85.136 C 510.377 74.681 506.545 63.059 507.429 49.923 C 507.906 42.836 512.571 33.469 518.191 32.125 C 524.348 30.653 529.064 33.182 532.85 36.795 C 545.71 49.067 550.504 64.352 547.111 81.782 C 546.448 85.188 543.287 88.107 540.932 91.421 Z" style="stroke-width: 1;"/>
    <path fill="#76BE43" opacity="1.000000" stroke="none" d="M 239.431 75.264 C 238.881 61.228 243.057 49.384 252.144 39.195 C 257.116 33.621 264.843 31.24 271.522 33.708 C 276.887 35.69 280.163 41.882 280.472 49.4 C 281.054 63.515 276.261 75.813 267.712 86.617 C 263.723 91.658 257.878 94.965 251.209 93.327 C 244.465 91.671 241.459 86.125 240.391 79.502 C 240.185 78.223 239.76 76.98 239.431 75.264 Z" style="stroke-width: 1;"/>
    <path fill="#E84260" opacity="1.000000" stroke="none" d="M 564.482 239.481 C 565.875 247.261 567.042 254.632 561.569 260.921 C 557.718 265.347 550.257 267.184 546.475 265.152 C 542.701 263.125 540.813 253.942 541.746 249.943 C 543.594 242.031 548.295 235.778 553.64 229.947 C 555.912 227.47 558.381 225.175 560.761 222.796 C 561.191 223.115 561.621 223.434 562.052 223.752 C 562.848 228.845 563.644 233.937 564.482 239.481 Z" style="stroke-width: 1;"/>
    <path fill="#76BE43" opacity="1.000000" stroke="none" d="M 236.207 232.919 C 239.614 238.993 243.185 244.626 245.805 250.671 C 248.012 255.762 243.434 264.322 238.754 265.687 C 230.659 268.046 224.395 262.827 223.726 256.724 C 222.936 249.513 223.568 242.121 223.898 234.822 C 224.079 230.818 224.907 226.843 225.626 221.502 C 229.632 225.827 232.795 229.242 236.207 232.919 Z" style="stroke-width: 1;"/>
  </g>
</svg>